<svg xmlns="http://www.w3.org/2000/svg" xmlns:xlink="http://www.w3.org/1999/xlink" width="1920" zoomAndPan="magnify" viewBox="0 0 1440 809.999993" height="1080" preserveAspectRatio="xMidYMid meet" version="1.2"><defs><clipPath id="bc255840ff"><path d="M 0 0 L 450.558594 0 L 450.558594 174 L 0 174 Z M 0 0 "/></clipPath><clipPath id="1d7042fffa"><path d="M 945 624 L 1440 624 L 1440 810 L 945 810 Z M 945 624 "/></clipPath><clipPath id="a5a0673621"><path d="M 1552.765625 1005.113281 L 972.246094 1077.394531 L 920.445312 661.355469 L 1500.964844 589.074219 Z M 1552.765625 1005.113281 "/></clipPath><clipPath id="934623ae6f"><path d="M 1552.765625 1005.113281 L 972.246094 1077.394531 L 920.445312 661.355469 L 1500.964844 589.074219 Z M 1552.765625 1005.113281 "/></clipPath><clipPath id="16baccba63"><path d="M 0 540 L 405 540 L 405 810 L 0 810 Z M 0 540 "/></clipPath><clipPath id="8fc0bd4d47"><path d="M -56.320312 497.238281 L 450.335938 640.417969 L 352.640625 986.128906 L -154.015625 842.949219 Z M -56.320312 497.238281 "/></clipPath><clipPath id="dba56378bd"><path d="M 352.589844 986.175781 L -154.066406 842.996094 L -56.371094 497.285156 L 450.289062 640.464844 Z M 352.589844 986.175781 "/></clipPath><clipPath id="a807f508fe"><path d="M 936 0 L 1440 0 L 1440 303 L 936 303 Z M 936 0 "/></clipPath><clipPath id="84e468a939"><path d="M 1048.710938 -369.070312 L 1660.804688 7.199219 L 1403.9375 425.0625 L 791.839844 48.789062 Z M 1048.710938 -369.070312 "/></clipPath><clipPath id="7a53253584"><path d="M 1404.105469 425.191406 L 792.007812 48.921875 L 1048.875 -368.941406 L 1660.972656 7.328125 Z M 1404.105469 425.191406 "/></clipPath></defs><g id="f201f2b938"><rect x="0" width="1440" y="0" height="809.999993" style="fill:#ffffff;fill-opacity:1;stroke:none;"/><rect x="0" width="1440" y="0" height="809.999993" style="fill:#ffffff;fill-opacity:1;stroke:none;"/><g clip-rule="nonzero" clip-path="url(#bc255840ff)"><path style=" stroke:none;fill-rule:nonzero;fill:#5271ff;fill-opacity:1;" d="M 449.988281 -3.230469 C 450.25 10.496094 448.742188 23.933594 443.804688 36.6875 C 433.347656 63.726562 414.003906 81.289062 385.914062 88.707031 C 377.367188 90.898438 368.679688 92.007812 359.851562 92.039062 C 351.257812 92.128906 342.757812 93.078125 334.351562 94.890625 C 321.929688 97.578125 311.199219 103.75 301.816406 112.277344 C 294.328125 119.09375 287.882812 126.832031 281.371094 134.5625 C 277.105469 139.65625 273.066406 144.972656 267.59375 148.914062 C 266.910156 149.441406 266.304688 150.046875 265.78125 150.734375 C 256.609375 162.078125 244.363281 168.359375 230.480469 171.628906 C 217.472656 174.707031 204.511719 173.488281 191.738281 169.898438 C 181.1875 166.976562 171.070312 162.789062 160.992188 158.542969 C 149.132812 153.539062 137.277344 148.515625 124.714844 145.515625 C 115.953125 143.425781 107.035156 141.828125 98.011719 142.441406 C 89.480469 143.015625 80.972656 144.136719 72.511719 145.363281 C 60.828125 147.074219 49.332031 149.722656 37.648438 150.863281 C 28.011719 151.898438 18.375 151.898438 8.742188 150.863281 C -8.003906 148.835938 -20.835938 139.910156 -29.179688 125.121094 C -35.929688 113.195312 -37.699219 100.253906 -36.433594 86.625 C -34.585938 66.917969 -28.527344 48.457031 -20.273438 30.679688 C -13.144531 15.316406 -5.484375 0.195312 2.003906 -15 C 6.746094 -24.621094 11.164062 -34.367188 14.941406 -44.421875 C 19.878906 -57.558594 22.730469 -71.148438 24.765625 -84.964844 C 26.839844 -98.953125 28.824219 -112.964844 33.820312 -126.324219 C 42.933594 -150.742188 60.285156 -165.871094 85.578125 -171.800781 C 93.96875 -173.734375 102.472656 -174.6875 111.085938 -174.652344 C 119.019531 -174.652344 126.957031 -174.574219 134.902344 -174.652344 C 138.359375 -174.671875 141.710938 -174.082031 144.957031 -172.878906 C 155.054688 -169.296875 165.121094 -165.609375 175.324219 -162.335938 C 190.917969 -157.25 206.914062 -154.519531 223.3125 -154.148438 C 233.652344 -153.945312 243.847656 -155.453125 253.980469 -157.214844 C 265.585938 -159.242188 277.085938 -161.878906 288.691406 -163.828125 C 295.214844 -164.925781 301.777344 -166.222656 308.496094 -165.695312 C 310.210938 -165.628906 311.902344 -165.808594 313.566406 -166.242188 C 316.328125 -166.96875 319.082031 -166.933594 321.824219 -166.125 C 322.84375 -165.753906 323.894531 -165.589844 324.976562 -165.628906 C 335.804688 -166.453125 345.753906 -163.105469 355.488281 -159.074219 C 362.332031 -156.195312 368.84375 -152.699219 375.023438 -148.578125 C 381.199219 -144.460938 386.933594 -139.796875 392.222656 -134.589844 C 419.875 -107.875 437.222656 -75.394531 445.988281 -38.203125 C 448.8125 -26.714844 450.148438 -15.058594 449.988281 -3.230469 Z M -31.945312 96.875 C -31.117188 95.953125 -30.523438 95.570312 -30.40625 95.085938 C -30.164062 94.015625 -30.339844 92.875 -31.683594 92.691406 C -32.074219 92.640625 -32.957031 93.402344 -32.929688 93.730469 C -32.714844 94.816406 -32.386719 95.863281 -31.945312 96.875 Z M -31.945312 96.875 "/></g><g clip-rule="nonzero" clip-path="url(#1d7042fffa)"><g clip-rule="nonzero" clip-path="url(#a5a0673621)"><g clip-rule="nonzero" clip-path="url(#934623ae6f)"><path style=" stroke:none;fill-rule:nonzero;fill:#00bf63;fill-opacity:1;" d="M 947.183594 873.273438 C 944.839844 856.980469 944.644531 840.773438 948.625 824.867188 C 957.0625 791.15625 977.472656 767.394531 1009.792969 754.40625 C 1019.636719 750.535156 1029.808594 747.929688 1040.304688 746.585938 C 1050.515625 745.203125 1060.488281 742.816406 1070.214844 739.414062 C 1084.597656 734.378906 1096.449219 725.445312 1106.351562 713.910156 C 1114.246094 704.691406 1120.769531 694.527344 1127.371094 684.367188 C 1131.691406 677.679688 1135.710938 670.753906 1141.636719 665.253906 C 1142.371094 664.527344 1143 663.714844 1143.519531 662.820312 C 1152.75 647.96875 1166.390625 638.683594 1182.421875 632.734375 C 1197.441406 627.148438 1213.039062 626.675781 1228.765625 629.058594 C 1241.753906 630.96875 1254.410156 634.453125 1267.027344 638.007812 C 1281.875 642.207031 1296.726562 646.425781 1312.113281 648.132812 C 1322.847656 649.324219 1333.691406 649.902344 1344.339844 647.835938 C 1354.402344 645.890625 1364.359375 643.296875 1374.242188 640.585938 C 1387.886719 636.816406 1401.171875 631.960938 1414.902344 628.875 C 1426.214844 626.21875 1437.675781 624.789062 1449.292969 624.59375 C 1469.515625 624.523438 1486.101562 633.242188 1498.21875 649.601562 C 1508.011719 662.792969 1512.039062 677.921875 1512.550781 694.324219 C 1513.269531 718.042969 1508.800781 740.898438 1501.609375 763.273438 C 1495.40625 782.605469 1488.53125 801.726562 1481.875 820.917969 C 1477.660156 833.0625 1473.84375 845.3125 1470.839844 857.835938 C 1466.914062 874.191406 1465.535156 890.785156 1465.160156 907.519531 C 1464.765625 924.472656 1464.476562 941.433594 1460.515625 958.066406 C 1453.289062 988.464844 1434.890625 1009.03125 1405.679688 1019.832031 C 1395.980469 1023.378906 1386.003906 1025.769531 1375.753906 1027.003906 C 1366.3125 1028.179688 1356.863281 1029.265625 1347.421875 1030.535156 C 1343.308594 1031.066406 1339.234375 1030.863281 1335.195312 1029.914062 C 1322.652344 1027.148438 1310.132812 1024.25 1297.507812 1021.871094 C 1278.203125 1018.128906 1258.769531 1017.25 1239.203125 1019.238281 C 1226.875 1020.523438 1214.96875 1023.832031 1203.175781 1027.429688 C 1189.667969 1031.554688 1176.378906 1036.398438 1162.863281 1040.433594 C 1155.265625 1042.710938 1147.648438 1045.222656 1139.578125 1045.589844 C 1137.527344 1045.765625 1135.542969 1046.234375 1133.625 1046.992188 C 1130.445312 1048.269531 1127.167969 1048.628906 1123.785156 1048.074219 C 1122.519531 1047.785156 1121.242188 1047.746094 1119.960938 1047.953125 C 1107.203125 1050.539062 1094.871094 1048.03125 1082.691406 1044.675781 C 1074.121094 1042.265625 1065.859375 1039.066406 1057.898438 1035.082031 C 1049.941406 1031.101562 1042.425781 1026.402344 1035.363281 1020.988281 C 998.511719 993.300781 973.058594 957.230469 957.125 914.285156 C 952.0625 901.039062 948.746094 887.367188 947.183594 873.273438 Z M 1505.691406 682.792969 C 1504.84375 684.015625 1504.195312 684.554688 1504.128906 685.152344 C 1503.996094 686.460938 1504.375 687.792969 1506 687.8125 C 1506.46875 687.8125 1507.414062 686.777344 1507.328125 686.390625 C 1506.914062 685.132812 1506.367188 683.933594 1505.691406 682.792969 Z M 1505.691406 682.792969 "/></g></g></g><g clip-rule="nonzero" clip-path="url(#16baccba63)"><g clip-rule="nonzero" clip-path="url(#8fc0bd4d47)"><g clip-rule="nonzero" clip-path="url(#dba56378bd)"><path style=" stroke:none;fill-rule:nonzero;fill:#5271ff;fill-opacity:1;" d="M -27.691406 712.195312 C -27.054688 708.976562 -26.460938 705.441406 -25.914062 702.0625 C -25.699219 696.070312 -26.292969 690.160156 -27.699219 684.332031 C -28.84375 679.867188 -30.464844 675.582031 -32.558594 671.476562 C -35.25 666.570312 -34.65625 666.027344 -41.523438 654.265625 C -59.550781 623.554688 -60.882812 622.5 -67.371094 604.222656 C -68.039062 602.125 -68.570312 599.992188 -68.960938 597.828125 C -73.042969 579.6875 -72.921875 555.9375 -57.847656 545.519531 C -28.3125 525.160156 22.019531 567.070312 46.109375 585.089844 C 57.324219 593.492188 73.382812 607.238281 93.464844 612.402344 C 114.101562 617.761719 134.429688 614.230469 154.957031 608.445312 C 166.699219 605.351562 178.210938 601.5625 189.496094 597.074219 C 202.757812 593.175781 218.132812 588.179688 237.195312 588.539062 C 265.5625 589.148438 292.917969 602.824219 302.554688 614.652344 C 306.875 619.332031 310.578125 624.457031 313.667969 630.023438 C 319.332031 640.007812 323.117188 650.660156 325.023438 661.976562 C 325.429688 663.789062 326.640625 668.277344 326.707031 669.246094 C 327.09375 671.789062 327.777344 674.25 328.769531 676.625 C 329.902344 679.457031 335.613281 698.332031 346.316406 706.859375 C 352.785156 711.726562 359.5625 716.121094 366.644531 720.042969 C 369.71875 722.035156 372.515625 724.386719 375.492188 726.484375 C 387.195312 734.957031 407.511719 776.203125 403.597656 796.910156 C 400.566406 812.800781 397.730469 826.203125 388.378906 839.457031 C 369.101562 866.796875 368.449219 866.339844 360.378906 875.066406 C 329.15625 908.847656 286.753906 913.785156 251.878906 892.921875 C 243.828125 888.097656 227.621094 878.015625 218.183594 871.609375 C 212.945312 867.976562 207.445312 864.792969 201.691406 862.054688 C 195.933594 859.316406 189.992188 857.058594 183.871094 855.285156 C 177.746094 853.511719 171.519531 852.242188 165.191406 851.480469 C 158.863281 850.71875 152.511719 850.472656 146.144531 850.742188 C 134.457031 851.347656 136.960938 850.660156 114.679688 854.964844 C 98.84375 858.101562 64.144531 875.8125 29.53125 877.957031 C -18.078125 880.878906 -61.84375 841.941406 -52.308594 779.710938 C -49.386719 760.59375 -32.058594 733.417969 -27.691406 712.195312 Z M -27.691406 712.195312 "/></g></g></g><g clip-rule="nonzero" clip-path="url(#a807f508fe)"><g clip-rule="nonzero" clip-path="url(#84e468a939)"><g clip-rule="nonzero" clip-path="url(#7a53253584)"><path style=" stroke:none;fill-rule:nonzero;fill:#00bf63;fill-opacity:1;" d="M 1006.464844 -75.996094 C 1008.496094 -79.984375 1010.589844 -84.410156 1012.5625 -88.644531 C 1015.074219 -96.429688 1016.492188 -104.414062 1016.808594 -112.59375 C 1016.964844 -118.882812 1016.429688 -125.113281 1015.203125 -131.285156 C 1013.492188 -138.726562 1014.476562 -139.222656 1009.824219 -157.222656 C 997.566406 -204.257812 996.207031 -206.140625 994.476562 -232.554688 C 994.378906 -235.558594 994.476562 -238.554688 994.765625 -241.546875 C 996.148438 -266.890625 1005.132812 -298.035156 1028.800781 -306.117188 C 1075.164062 -321.882812 1125.6875 -248.128906 1150.632812 -215.507812 C 1162.242188 -200.304688 1178.226562 -176.28125 1202.679688 -162.035156 C 1227.796875 -147.332031 1255.808594 -144.410156 1284.917969 -144.382812 C 1301.488281 -144.078125 1318.019531 -144.777344 1334.507812 -146.480469 C 1353.375 -146.667969 1375.425781 -147.519531 1400.328125 -139.964844 C 1437.359375 -128.621094 1468.207031 -100.488281 1476.46875 -81.371094 C 1480.402344 -73.621094 1483.363281 -65.515625 1485.351562 -57.050781 C 1487.199219 -49.5 1488.378906 -41.847656 1488.890625 -34.089844 C 1489.402344 -26.335938 1489.234375 -18.59375 1488.390625 -10.867188 C 1488.25 -8.332031 1488.175781 -1.988281 1487.898438 -0.691406 C 1487.460938 2.792969 1487.445312 6.277344 1487.863281 9.761719 C 1488.300781 13.910156 1488.785156 40.816406 1499.675781 56 C 1506.363281 64.792969 1513.632812 73.085938 1521.472656 80.871094 C 1524.769531 84.625 1527.574219 88.757812 1530.699219 92.621094 C 1542.925781 108.097656 1554.277344 169.816406 1541.441406 195.558594 C 1531.554688 215.304688 1522.851562 231.851562 1505.640625 245.789062 C 1470.160156 274.53125 1469.472656 273.6875 1455.628906 282.152344 C 1402.066406 314.914062 1344.539062 305.640625 1306.488281 265.277344 C 1297.710938 255.953125 1280.167969 236.683594 1270.152344 224.765625 C 1264.621094 218.046875 1258.585938 211.820312 1252.042969 206.082031 C 1245.5 200.34375 1238.535156 195.171875 1231.152344 190.566406 C 1223.769531 185.960938 1216.0625 181.984375 1208.035156 178.628906 C 1200.003906 175.277344 1191.753906 172.59375 1183.289062 170.582031 C 1167.714844 167.03125 1171.257812 167.0625 1140.394531 164.433594 C 1118.429688 162.664062 1066.273438 173.035156 1020.011719 162.984375 C 956.398438 149.128906 913.386719 81.722656 949.039062 3.53125 C 959.980469 -20.492188 992.839844 -49.742188 1006.464844 -75.996094 Z M 1006.464844 -75.996094 "/></g></g></g></g></svg>